<svg width="69" height="20" viewBox="0 0 69 20" fill="none" xmlns="http://www.w3.org/2000/svg">
<path fill-rule="evenodd" clip-rule="evenodd" d="M24.0151 0C24.8198 0.550891 25.6383 1.38627 25.6383 2.19357V16.4187C25.6383 17.2156 24.8869 18.3428 24.2026 18.7921C26.6164 18.7921 29.0302 18.7921 31.4443 18.7921C36.1297 18.5987 38.9717 16.9071 39.3114 13.3605C39.5497 10.873 38.2353 8.93818 35.0063 7.84734C36.6174 7.23437 37.4834 5.89948 37.5626 4.05818C37.6984 0.891035 34.0125 0 31.6941 0H24.0151V0ZM28.51 7.61685V1.68574H30.7324C33.2537 1.68574 34.4414 2.92286 34.4409 4.78747C34.4407 6.65208 32.7359 7.61685 30.6082 7.61685H28.51ZM30.8792 16.9815H28.51V9.30235H31.1946C35.1937 9.30235 36.4035 11.7071 36.189 13.6726C35.9747 15.6383 34.2853 16.9815 30.8792 16.9815ZM45.688 0H41.7528C42.6279 0.973811 43.0097 1.48522 43.0097 2.99446V15.9582C43.0097 17.4515 42.3477 18.3678 41.3984 19.0162H46.6345C45.8569 18.5417 45.0201 17.61 45.0201 15.9237V4.47135C47.6651 8.00504 50.3104 11.5385 52.9557 15.072C54.4554 17.0341 56.1942 18.6972 58.2217 20V2.92619C58.2217 1.21643 58.9111 0.564211 59.8335 0H54.7283C55.6538 0.686473 56.1442 1.46191 56.1442 2.85816V14.292L45.688 0V0ZM62.7309 19.0162C63.7901 18.3133 64.3286 17.4889 64.3286 16.4185V2.83985C64.3286 1.23427 63.8653 0.871292 62.9566 0H69C67.957 0.587046 67.2251 1.78611 67.2251 2.83985V16.3812C67.2251 17.4201 67.84 18.3718 68.6739 19.0162H62.7309Z" fill="#007697"/>
<path fill-rule="evenodd" clip-rule="evenodd" d="M0.284668 0H6.1185C5.81379 0.522823 5.58307 1.69834 6.17297 4.33886C6.69722 6.68585 8.21359 9.13418 9.79538 11.0694L7.8078 12.7014L0.284668 3.24873V0V0ZM8.80397 0H19.0739V2.48876C18.2797 2.02445 16.8309 1.57584 14.7039 2.42668C11.2718 3.79962 10.9778 7.81999 10.9778 7.81999C9.07918 5.52651 7.8304 1.76637 8.80397 0ZM19.0739 5.78982V13.1971C16.7403 14.0827 13.467 11.7797 12.6447 9.04569C11.4526 5.08266 14.2625 3.65239 16.2726 4.04462C17.775 4.33791 18.6472 5.23322 19.0739 5.78982ZM19.0739 14.4131V18.79H12.7796L14.0415 17.7541C13.2182 17.8545 11.6005 17.4672 10.813 16.4775L8.59727 13.6935L10.6229 12.0306C11.8676 13.4026 13.0532 14.3883 13.7232 14.684C15.1585 15.3172 16.775 15.6228 19.0739 14.4131ZM9.26471 18.79H2.3888L6.67296 15.2729C7.02357 15.7135 7.36204 16.1392 7.68364 16.5434C8.31445 17.3362 8.84441 18.1192 9.26471 18.79ZM0.390517 18.79H0.284668V7.24626C1.92093 9.30211 4.01103 11.9284 5.88349 14.2811L0.390517 18.79Z" fill="#EC6722"/>
</svg>
