<svg width="70" height="20" viewBox="0 0 70 20" fill="none" xmlns="http://www.w3.org/2000/svg">
<g clip-path="url(#clip0_11_2484)">
<path d="M52.0116 11.3993H54.4421V19.7572H52.0116V11.3993ZM46.0294 19.7572V13.9939C46.0294 13.5221 46.021 13.0699 46.0043 12.6344C45.9879 12.2012 45.9656 11.7907 45.9321 11.3993H48.1605L48.2492 12.8951C48.4601 12.3818 48.7986 11.9933 49.2621 11.7296C49.7226 11.4661 50.2996 11.3357 50.9879 11.3357H51.0601L51.0518 13.5306C50.9048 13.5193 50.7964 13.5112 50.7242 13.5056C50.6492 13.4999 50.5829 13.4971 50.5244 13.4971C49.8891 13.4971 49.3925 13.6524 49.0345 13.9608C48.6736 14.2687 48.4934 14.6987 48.4934 15.2453V19.7572H46.0294ZM42.3542 11.3993H44.785V19.7572H42.3542V11.3993ZM38.4154 19.7572L38.335 18.5642C38.0354 19.0136 37.6747 19.3523 37.2529 19.5798C36.8312 19.8072 36.3539 19.9213 35.8209 19.9213C34.8084 19.9213 33.987 19.5243 33.3542 18.7306C32.7243 17.937 32.4082 16.8854 32.4082 15.5812C32.4082 14.2687 32.7161 13.2169 33.335 12.4288C33.9536 11.6409 34.7721 11.2469 35.7906 11.2469C36.3428 11.2469 36.8257 11.355 37.2362 11.5687C37.6497 11.7824 38.0049 12.1098 38.3019 12.5481V7.76709H40.716V18.0759C40.716 18.4977 40.7215 18.8416 40.7352 19.1025C40.7491 19.366 40.7714 19.5854 40.7964 19.7572H38.4154ZM34.8721 15.5949C34.8721 16.458 35.0219 17.1269 35.3187 17.6013C35.6158 18.0759 36.0348 18.3116 36.5703 18.3116C37.1168 18.3116 37.5527 18.0701 37.8717 17.5846C38.1908 17.0991 38.3517 16.4358 38.3517 15.5949C38.3517 14.7515 38.1908 14.0828 37.8717 13.5971C37.5527 13.1088 37.1168 12.8645 36.5703 12.8645C36.0348 12.8645 35.6158 13.103 35.3187 13.5834C35.0219 14.0633 34.8721 14.7348 34.8721 15.5949ZM23.3847 19.7572V13.0032C23.3847 12.7647 23.3791 12.5149 23.3653 12.254C23.3516 11.9933 23.3293 11.7076 23.3043 11.3993H25.6184L25.6684 12.6536C25.9819 12.1487 26.3565 11.7794 26.7869 11.5465C27.2169 11.3135 27.744 11.1969 28.3685 11.1969C29.2895 11.1969 29.9721 11.4578 30.4189 11.9822C30.8657 12.5036 31.0905 13.3028 31.0905 14.3767V19.7572H28.7012V14.71C28.7012 14.0856 28.5931 13.6387 28.3794 13.3669C28.1659 13.0977 27.8189 12.9618 27.3361 12.9618C26.87 12.9618 26.4927 13.1116 26.2095 13.4139C25.9236 13.7137 25.7821 14.1133 25.7821 14.6128V19.7572H23.3847ZM0.344158 19.7572V13.0032C0.344158 12.7034 0.338418 12.4233 0.327493 12.1598C0.316197 11.8961 0.299717 11.6435 0.280273 11.3993H2.58049L2.64438 12.6536C2.95788 12.1487 3.32971 11.7794 3.76264 11.5465C4.1928 11.3135 4.71999 11.1969 5.34161 11.1969C5.97139 11.1969 6.50135 11.3357 6.93706 11.6159C7.36981 11.8961 7.68628 12.3011 7.88608 12.8314C8.1581 12.2679 8.51307 11.8544 8.95138 11.5909C9.39005 11.3272 9.94483 11.1969 10.6192 11.1969C11.5405 11.1969 12.226 11.4578 12.6754 11.9822C13.125 12.5036 13.3496 13.3028 13.3496 14.3767V19.7572H10.9355V14.71C10.9355 14.0856 10.8274 13.6387 10.6137 13.3669C10.3998 13.0977 10.0532 12.9618 9.57041 12.9618C9.10433 12.9618 8.72973 13.1116 8.45197 13.4139C8.1718 13.7137 8.0331 14.1133 8.0331 14.6128V19.7572H5.619V14.71C5.619 14.0911 5.51364 13.6471 5.30254 13.3723C5.09181 13.0977 4.75054 12.9618 4.27872 12.9618C3.81264 12.9618 3.44359 13.1116 3.16898 13.4086C2.89418 13.7082 2.75808 14.1078 2.75808 14.6128V19.7572H0.344158ZM19.881 18.8841C19.3944 19.3097 18.4415 19.7659 17.7867 19.913C17.5355 19.9719 17.2616 20 16.9655 20C16.2631 20 15.6754 19.7522 15.2019 19.2597C14.7284 18.7643 14.4927 18.1338 14.4927 17.3678C14.4927 16.7524 14.614 16.2523 14.854 15.8642C15.0964 15.4736 15.4374 15.1672 15.8794 14.9427C16.3168 14.7205 16.8622 14.5596 17.5108 14.4652C18.1593 14.3707 18.8322 14.2993 19.5279 14.2559V14.21C19.5279 12.2112 16.6774 12.4601 15.4584 13.3143L15.0365 11.7398C15.9891 11.2926 16.9266 11.0654 18.0917 11.0654C20.1353 11.0654 21.8615 12.0451 21.8615 14.387V19.7752H19.881V18.8841ZM19.6898 17.2537V15.6421C19.3216 15.6777 18.9196 15.7247 18.4891 15.784C18.0589 15.8458 17.7321 15.9167 17.5092 15.9964C17.237 16.0936 17.027 16.2384 16.8844 16.4241C16.739 16.6128 16.6664 16.8578 16.6664 17.1644C16.6664 19.2812 19.1383 18.5942 19.6898 17.2537Z" fill="#0061AE"/>
<path fill-rule="evenodd" clip-rule="evenodd" d="M27.2598 6.07536C28.0056 6.90864 29.3931 9.16831 31.036 9.02868C34.8846 8.70167 37.0765 4.53972 41.8283 4.83673C43.7802 4.95876 44.6994 8.23281 46.635 8.51483C49.6859 8.95943 52.6089 4.26825 57.5813 4.53749C59.6254 4.64804 60.4702 8.08264 62.5079 8.28096C64.4075 8.46576 67.3827 5.77279 69.9977 4.37676C69.332 3.25536 68.0947 1.50417 66.7776 1.41566C64.1848 1.24123 62.1105 4.55379 59.8299 3.97549C58.5026 3.63903 56.9908 -0.00721104 54.8043 1.07131e-05C50.7568 0.0133432 47.9634 4.02086 44.385 4.33751C42.3543 4.51713 41.3781 0.000566234 38.6587 0.415725C34.937 0.984021 31.1338 4.05049 27.2598 6.07536Z" fill="url(#paint0_linear_11_2484)"/>
</g>
<defs>
<linearGradient id="paint0_linear_11_2484" x1="29.9577" y1="12.3079" x2="67.2999" y2="-3.14645" gradientUnits="userSpaceOnUse">
<stop stop-color="#F6AD02"/>
<stop offset="0.2" stop-color="#FFF000"/>
<stop offset="0.411765" stop-color="#F6AD02"/>
<stop offset="0.658824" stop-color="#FFF000"/>
<stop offset="0.788235" stop-color="#F6AD02"/>
<stop offset="1" stop-color="#FFF000"/>
</linearGradient>
<clipPath id="clip0_11_2484">
<rect width="69.7222" height="20" fill="white" transform="translate(0.277832)"/>
</clipPath>
</defs>
</svg>
