<svg width="81" height="20" viewBox="0 0 81 20" fill="none" xmlns="http://www.w3.org/2000/svg">
<path fill-rule="evenodd" clip-rule="evenodd" d="M68.4668 0.0667182L71.1333 1.13311L74.5999 0L68.4668 0.0667182Z" fill="#D7042F"/>
<path fill-rule="evenodd" clip-rule="evenodd" d="M68.1333 0.466483C68.7128 0.773056 70.3179 1.43252 70.6669 1.79974L71.1334 1.19983V1.13311L68.4669 0.066726L68.2563 0.0628662L68.1333 0.466483Z" fill="#AD222D"/>
<path fill-rule="evenodd" clip-rule="evenodd" d="M71.1333 1.13311V1.19982L71.8666 1.73302L75.1998 0.533194L74.8 0H74.5999L71.1333 1.13311Z" fill="#DC4958"/>
<path fill-rule="evenodd" clip-rule="evenodd" d="M77.4 6.4L80.8666 6.33328L76 4.13324L77.4 6.4Z" fill="#7EB033"/>
<path fill-rule="evenodd" clip-rule="evenodd" d="M63.3335 6.46669L65.6003 6.60013L67.4 4.40009L63.3335 6.46669Z" fill="#0096B7"/>
<path fill-rule="evenodd" clip-rule="evenodd" d="M75.4668 4.33339L76.5999 6.9332L77.4 6.46672V6.4L76 4.13324L75.4668 4.33339Z" fill="#5A891D"/>
<path fill-rule="evenodd" clip-rule="evenodd" d="M67.3998 4.40012L65.6001 6.60016V6.66633L66.4663 6.99992L68.1999 4.66644L67.5972 4.26172L67.3998 4.40012Z" fill="#29B5E4"/>
<path fill-rule="evenodd" clip-rule="evenodd" d="M77.3999 6.39997V6.46669L77.6001 7.33347L80.9999 7.0666L80.9966 6.40548L80.8665 6.33325L77.3999 6.39997Z" fill="#A1C24A"/>
<path fill-rule="evenodd" clip-rule="evenodd" d="M63.2669 6.93315L65.6004 7.33346V6.60011L63.3336 6.46667L63.1919 6.53394L63.2669 6.93315Z" fill="#00738F"/>
<path fill-rule="evenodd" clip-rule="evenodd" d="M72.1998 19.7998L72.3332 19.4668L76.5999 6.93318L75.4668 4.33337C75.3438 4.52691 73.849 11.3002 73.7277 12.0605C73.532 13.2824 73.1091 14.6637 72.8615 15.928C72.7275 16.6112 71.9225 19.4006 72.1998 19.7998Z" fill="#39772F"/>
<path fill-rule="evenodd" clip-rule="evenodd" d="M70.667 1.79974L71.8668 10.5999V1.73302L71.1335 1.19983L70.667 1.79974Z" fill="#D2072E"/>
<path fill-rule="evenodd" clip-rule="evenodd" d="M71.8668 10.9335V10.5999L70.6669 1.79975C70.3179 1.43253 68.7128 0.773064 68.1333 0.466492L71.6716 10.8541L71.8668 10.9335Z" fill="#731C18"/>
<path fill-rule="evenodd" clip-rule="evenodd" d="M71.8667 1.73303V10.9335C72.1981 11.1265 72.3293 10.2421 72.4264 9.89304C72.5587 9.42105 72.691 9.04611 72.8267 8.55978C73.0831 7.64227 73.3665 6.82401 73.6267 5.89326C73.8826 4.97575 74.1649 4.15638 74.4268 3.22674C74.6159 2.5546 75.1508 1.12374 75.1998 0.533203L71.8667 1.73303Z" fill="#B12130"/>
<path fill-rule="evenodd" clip-rule="evenodd" d="M65.6001 7.3335L71.1333 15.7334L66.4663 6.99991L65.6001 6.66632V7.3335Z" fill="#0094B5"/>
<path fill-rule="evenodd" clip-rule="evenodd" d="M12.5335 18.4666L12.4563 19.3323L11.7521 19.6493L11.7334 19.8666H14.6668V19.5997C14.0735 19.5997 13.8 19.3902 13.8 18.8002V16.4667C13.8 15.8459 14.1375 14.8666 14.7335 14.8666C15.1057 14.8666 14.9105 15.5332 15.3334 15.5332H15.6665C15.9962 15.5332 16.2669 15.263 16.2669 14.9333V14.8666C16.2669 14.4773 15.9229 14.1332 15.5336 14.1332H15.2667C14.4291 14.1332 14.1628 14.8495 13.8 15.2663V14.1332L11.7334 14.2667V14.5335H11.9997C12.3438 14.5335 12.5335 14.8109 12.5335 15.1335V18.4666Z" fill="#343434"/>
<path fill-rule="evenodd" clip-rule="evenodd" d="M71.3334 16.1998L71.1333 15.7333L65.6001 7.33348L63.2666 6.93317C64.3087 8.48919 66.087 10.0711 67.2399 11.6266C67.6904 12.2342 70.9155 16.1028 71.3334 16.1998Z" fill="#005471"/>
<path fill-rule="evenodd" clip-rule="evenodd" d="M66.4663 6.99986L71.1333 15.7333L71.3334 16.1998C71.4525 16.1568 71.533 16.1513 71.533 15.9335C71.533 15.7212 68.4144 5.11356 68.1999 4.66638L66.4663 6.99986Z" fill="#00738F"/>
<path fill-rule="evenodd" clip-rule="evenodd" d="M32.0664 14.5997H32.6669V18.5333C32.6669 19.4778 33.0606 20 34.0001 20C34.4241 20 35.4668 19.7453 35.4668 19.4668C35.4668 19.3256 35.4426 19.3786 35.4001 19.1999C35.1944 19.3086 34.9347 19.5335 34.6668 19.5335C34.2339 19.5335 34.0001 19.1051 34.0001 18.6667V14.5997H35.2667V14.2666H34.0001V12.5331H33.6665C33.344 12.5331 33.3374 14.2666 32.2666 14.2666H32.0664V14.5997Z" fill="#343434"/>
<path fill-rule="evenodd" clip-rule="evenodd" d="M76.5997 6.93315L72.333 19.4668L77.5999 7.33346L77.3997 6.46667L76.5997 6.93315Z" fill="#7CAD31"/>
<path fill-rule="evenodd" clip-rule="evenodd" d="M2.79965 12.2H3.79987C4.53818 12.2 5.13313 13.0558 5.13313 13.8663V14.5997C5.13313 15.542 4.37001 16.1998 3.39957 16.1998H2.79965V12.2ZM6.53311 14.0665C6.53311 12.6086 5.48933 11.8665 4.06675 11.8665H0.666328V12.1333C1.16809 12.1333 1.53311 12.3092 1.53311 12.8V18.9331C1.53311 19.3648 1.23371 19.5335 0.799764 19.5335H0.599609V19.8666H3.73316V19.5335H3.533C3.00532 19.5335 2.79965 19.3279 2.79965 18.8002V16.4667H3.86659C5.48878 16.4667 6.53311 15.7163 6.53311 14.0665Z" fill="#343434"/>
<path fill-rule="evenodd" clip-rule="evenodd" d="M23.4002 14.5997H23.4664C24.144 14.5997 24.2664 15.3099 24.2664 15.9997V19.0665C24.2664 19.4966 23.967 19.5997 23.5331 19.5997V19.8666H26.3998V19.5997H26.2002C24.6298 19.5997 26.7521 14.1332 24.2664 14.1332H23.7332C23.0666 14.1332 22.255 14.6775 22.1331 15.1335H21.9997C21.8911 14.667 21.461 14.1332 20.9333 14.1332H20.1332C19.4081 14.1332 19.0145 14.8782 18.6665 15.1335V14.1332L16.5999 14.2667V14.5335H16.8001C17.2318 14.5335 17.4 14.833 17.4 15.2663V18.7335C17.4 19.0764 17.3244 19.5335 16.9997 19.5335H16.5332V19.8666H19.4666V19.5997H19.2664C18.6748 19.5997 18.6665 19.056 18.6665 18.4666V16.5334C18.6665 15.5713 19.0729 14.5997 19.9998 14.5997C20.4795 14.5997 20.7999 15.1153 20.7999 15.5999V19.0665C20.7999 19.4966 20.5005 19.5997 20.0665 19.5997V19.8666H22.9332V19.5335H22.6001C22.2809 19.5335 22.1331 19.3075 22.1331 18.9998V16.0664C22.1331 15.4218 22.7082 14.5997 23.4002 14.5997Z" fill="#343434"/>
<path fill-rule="evenodd" clip-rule="evenodd" d="M43.5997 15.7333H45.1998C46.2199 15.7333 47.0663 16.4711 47.0663 17.4664V17.7332C47.0663 18.8845 46.2045 19.5997 45.0664 19.5997H43.5997V15.7333ZM43.5997 12.1333H44.933C45.9773 12.1333 46.8 12.6186 46.8 13.6667V13.8663C46.8 15.0094 45.8207 15.4665 44.6667 15.4665H43.5997V12.1333ZM45.1998 11.8665H41.8667V12.0666H42.133C42.4556 12.0666 42.6668 12.2772 42.6668 12.5998V19.1999C42.6668 19.5368 42.24 19.6664 41.8667 19.6664V19.7998H45.6002C46.9163 19.7998 48.0665 19.1735 48.0665 17.8667V17.5331C48.0665 16.3266 46.8673 15.5999 45.6663 15.5999C46.1631 15.1682 47.7996 15.5194 47.7996 13.6667V13.4666C47.7996 12.3633 46.3655 11.8665 45.1998 11.8665Z" fill="#343434"/>
<path fill-rule="evenodd" clip-rule="evenodd" d="M77.6 7.33346L72.3331 19.4668L72.1997 19.7998C72.6259 20.048 73.2711 18.793 73.48 18.4798C73.8555 17.9163 74.177 17.3969 74.5597 16.8267C75.3024 15.7206 75.9651 14.6857 76.7062 13.573C78.1591 11.3911 79.5519 9.22914 80.9999 7.06659L77.6 7.33346Z" fill="#6B8F16"/>
<path fill-rule="evenodd" clip-rule="evenodd" d="M27.9996 18.0669C27.9996 17.2662 28.8631 16.7998 29.6664 16.7998H30.0662V18.133C30.0662 18.8443 29.5258 19.5335 28.7997 19.5335C28.3635 19.5335 27.9996 18.948 27.9996 18.4666V18.0669ZM27.8662 15.9997C28.7748 15.9997 27.9125 14.3334 29.2661 14.3334H29.3328C29.8126 14.3334 30.0662 14.7855 30.0662 15.2663V16.5334C28.5455 16.5334 26.5996 16.8632 26.5996 18.3332V18.4666C26.5996 19.4073 27.1857 19.8114 28.0509 19.9493C29.318 20.1506 29.5876 19.3455 30.1329 19.2C30.1445 19.721 30.6077 19.8666 31.1331 19.8666H32.0661V19.5997C31.2903 19.5997 31.3316 19.1608 31.3327 18.3999C31.3344 17.7553 31.3327 17.1113 31.3327 16.4667C31.3327 14.9984 31.2704 14.1332 29.7999 14.1332H29.0665C28.1584 14.1332 26.9999 14.5953 26.9999 15.4665V15.5999C26.9999 15.874 27.366 15.9997 27.6665 15.9997H27.8662Z" fill="#343434"/>
<path fill-rule="evenodd" clip-rule="evenodd" d="M37.1998 18.0669C37.1998 17.2023 38.1195 16.7998 39.0001 16.7998H39.2664V17.8667C39.2664 18.7401 38.8523 19.5335 37.9998 19.5335C37.6266 19.5335 37.1998 18.9822 37.1998 18.6V18.0669ZM37.1331 15.9997C37.8774 15.9997 37.1546 14.3334 38.4663 14.3334H38.533C39.1043 14.3334 39.2664 14.9421 39.2664 15.5332V16.5334H38.8666C37.2114 16.5334 35.7998 16.9723 35.7998 18.6668C35.7998 19.2606 36.5899 20 37.1998 20H37.3999C38.3902 20 38.6907 19.5854 39.2664 19.2C39.3072 19.6907 39.8018 19.8666 40.3333 19.8666H41.2668V19.5997C40.4475 19.5997 40.5324 19.1818 40.5335 18.3999C40.534 17.7779 40.5335 17.1554 40.5335 16.5334C40.5335 15.7565 40.6311 15.3187 40.3328 14.8004C40.1326 14.4519 39.6667 14.1332 39.1335 14.1332H38.2667C37.3608 14.1332 36.1334 14.6477 36.1334 15.4665C36.1334 15.9236 36.5469 15.9997 37.0002 15.9997H37.1331Z" fill="#343434"/>
<path fill-rule="evenodd" clip-rule="evenodd" d="M49.5333 18.4666C49.5333 17.0705 50.8825 16.6669 52.2665 16.6669V17.5331C52.2665 18.6309 51.6462 19.5997 50.6002 19.5997H50.4668C49.9529 19.5997 49.5333 19.0031 49.5333 18.4666ZM64.9049 14.705C65.2688 14.4911 65.5197 14.6339 65.6002 14.3334H63.2V14.4668C63.5165 14.4668 63.9334 14.5898 63.9334 14.8666C63.9334 15.2349 61.8844 17.4752 61.6666 17.5331V13.8663L61.7471 11.8008L60.1332 11.8665V12.0666H60.5335C60.7491 12.0666 60.8665 12.3087 60.8665 12.5331V19.1332C60.8665 19.4558 60.6559 19.6664 60.3334 19.6664H59.8002C58.2849 19.6664 60.6614 14.1332 57.6668 14.1332C56.0088 14.1332 56.1864 14.9212 55.5335 15.3998V14.1999L54.0012 14.2849L54.0001 14.4668C54.5041 14.4778 54.7334 14.6874 54.7334 15.2002V19.0665C54.7334 19.4293 54.4963 19.6664 54.1335 19.6664H53.5998C53.3037 19.6664 53.1846 19.5098 53.0666 19.3334C53.0666 18.2003 53.0611 17.0661 53.0671 15.933C53.0732 14.7243 52.7429 14.1332 51.5332 14.1332H51.0667C50.1944 14.1332 49.0001 14.5688 49.0001 15.333V15.5332C49.0001 15.687 49.0464 15.7334 49.1997 15.7334H49.6667C49.8162 15.7334 49.8128 15.6804 49.933 15.5999C49.933 14.7982 50.2253 14.2667 51 14.2667C51.8828 14.2667 52.2665 14.6537 52.2665 15.5332V15.9335L52.1921 16.5323L51.8668 16.5334C50.6333 16.5334 48.6665 16.9982 48.6665 18.133V18.7335C48.6665 19.222 49.3111 19.8666 49.8002 19.8666H50.6664C51.3088 19.8666 51.8927 19.1172 52.2665 18.8663C52.2665 19.5253 52.3426 19.8666 52.9999 19.8666H56.3997V19.6664H56.1334C55.7105 19.6664 55.5335 19.2854 55.5335 18.8663V16.6001C55.5335 15.6677 56.1582 14.4668 57.0669 14.4668H57.4667C58.1835 14.4668 58.4669 15.3821 58.4669 16.1331V18.3332C58.4669 18.9446 58.4708 19.6664 57.8664 19.6664H57.6001V19.8666H62.5334V19.6664H62.2665C61.8436 19.6664 61.6666 19.2854 61.6666 18.8663V18.0663C61.6666 17.8623 62.481 16.9828 62.6668 16.9332L64.3789 19.8395L65.7998 19.8666V19.6664C65.0064 19.6002 64.6877 18.7268 64.3067 18.16C64.1528 17.9306 63.2 16.4794 63.2 16.3333C63.2 16.3327 64.1484 15.2812 64.2488 15.182C64.4456 14.9884 64.6529 14.8528 64.9049 14.705Z" fill="#343434"/>
<path fill-rule="evenodd" clip-rule="evenodd" d="M7.93295 16.3333C7.93295 15.5183 8.38012 14.3334 9.13277 14.3334C9.95544 14.3334 10.1997 15.6352 10.1997 16.5334H7.93295V16.3333ZM9.33293 19.5335C8.33271 19.5335 7.86623 17.8926 7.86623 16.7998H11.533V16.6002C11.533 15.1544 10.7064 14.1332 9.26621 14.1332H9.0666C5.60443 14.1332 5.56087 19.9333 9.0666 19.9333H9.53308C10.3436 19.9333 11.4663 19.1228 11.4663 18.5333C11.4663 18.3966 11.329 18.4109 11.1999 18.3999C11.072 18.8774 10.3624 19.5335 9.73323 19.5335H9.33293Z" fill="#343434"/>
</svg>
