<svg width="69" height="20" viewBox="0 0 69 20" fill="none" xmlns="http://www.w3.org/2000/svg">
<g clip-path="url(#clip0_11_2330)">
<path fill-rule="evenodd" clip-rule="evenodd" d="M9.45133 0.036726C6.14411 0.349504 3.46393 2.10061 1.83615 4.80358C0.77837 6.55987 0.281147 8.64062 0.434481 10.776C0.809666 16.0001 5.29911 20.423 11.0454 19.9677C16.2011 19.5589 20.455 14.921 20.0193 9.21654C19.8597 7.12802 19.1337 5.40673 17.9702 3.85247C17.4434 3.14876 17.3395 3.13728 16.7893 2.56117C16.1071 1.84654 14.6643 1.02617 13.7436 0.663208C12.5089 0.176356 10.9369 -0.10383 9.45133 0.036726Z" fill="#108DE8"/>
<path fill-rule="evenodd" clip-rule="evenodd" d="M4.54056 7.08584C4.41519 7.44788 4.48982 11.4732 4.48982 12.2199C4.48982 13.0277 4.33037 13.2799 5.59408 13.7121C8.94 14.8564 12.2531 10.9766 15.5802 12.8962C15.7344 12.9851 15.9222 13.1675 15.9663 12.8729L15.9676 7.69454C15.9678 7.13751 16.0176 6.96306 15.6482 6.70584C12.6709 4.63177 9.44741 8.17936 6.42648 7.7814C5.30852 7.63417 4.84556 7.0638 4.54056 7.08584Z" fill="white"/>
<path fill-rule="evenodd" clip-rule="evenodd" d="M27.5271 15.0686C28.8314 15.1618 30.3506 14.1503 30.886 13.571C32.7454 11.5586 32.7902 8.64694 30.9184 6.53972C30.2214 5.75509 28.5895 4.88787 27.5486 5.00935L23.7895 5.01213L23.7886 15.056L27.5271 15.0686ZM25.9002 12.8923C26.1771 12.9405 27.3143 12.9225 27.6267 12.8938C30.1947 12.659 31.1017 9.14787 28.9428 7.67713C28.5845 7.43287 28.1858 7.23824 27.6626 7.18009C27.3762 7.14805 26.1525 7.12824 25.8989 7.17398L25.9002 12.8923Z" fill="#108DE8"/>
<path fill-rule="evenodd" clip-rule="evenodd" d="M60.4518 15.0873L62.59 15.0864L62.5922 12.9216L66.835 12.9223L66.8474 15.0866L68.9846 15.087C68.9861 13.884 68.9852 12.6907 68.9852 11.4975C68.9852 10.4227 69.0756 9.07714 68.8104 8.10214C68.3619 6.45196 66.7926 4.98844 64.7274 4.98029C62.64 4.97214 61.1248 6.4314 60.6411 8.0577C60.3548 9.0201 60.4504 10.3999 60.4504 11.4594C60.4504 12.6668 60.438 13.8807 60.4518 15.0873ZM62.592 10.7436L66.8456 10.7455C66.8559 9.81696 66.9556 8.91455 66.5389 8.20307C66.2407 7.69418 65.6119 7.16159 64.7285 7.15788C63.8274 7.15418 63.2265 7.66547 62.905 8.1927C62.4837 8.88418 62.5789 9.83622 62.592 10.7436Z" fill="#108DE8"/>
<path fill-rule="evenodd" clip-rule="evenodd" d="M35.9948 15.0849L38.1257 15.0868C38.127 14.6349 38.0685 13.2499 38.1465 12.9216L42.373 12.9221L42.388 15.0853L44.5217 15.0873C44.5105 13.8879 44.5207 12.6903 44.5207 11.4975C44.5207 10.4742 44.6155 9.00806 44.3474 8.10084C43.1263 3.96917 37.4415 3.93992 36.1798 8.05955C35.8941 8.99251 35.9917 10.4203 35.9917 11.4594C35.9917 12.6584 35.9643 13.8899 35.9948 15.0849ZM38.127 10.7434L42.3859 10.7457C42.3948 9.83066 42.4948 8.91121 42.077 8.20121C41.3126 6.90177 39.3685 6.71473 38.4437 8.19492C38.0209 8.87158 38.1131 9.85251 38.127 10.7434Z" fill="#108DE8"/>
<path fill-rule="evenodd" clip-rule="evenodd" d="M48.2724 8.93232L48.2433 10.4327C48.2433 11.6906 48.1808 14.0373 48.2478 15.0579L50.3374 15.059C50.3859 14.3436 50.2619 9.23861 50.3943 9.07602C50.3948 8.08398 51.4291 7.16158 52.4752 7.15769C53.1178 7.15528 53.5863 7.41676 53.9274 7.72713C54.1937 7.96954 54.6009 8.52176 54.5932 9.0812C54.6909 9.13621 54.6137 14.4612 54.6445 15.0575L56.7363 15.059L56.7196 8.96287C56.7719 8.48528 56.4843 7.74695 56.2998 7.37213C54.7513 4.22454 50.3065 4.18287 48.7139 7.31787C48.5272 7.68546 48.2283 8.4438 48.2724 8.93232Z" fill="#108DE8"/>
<path fill-rule="evenodd" clip-rule="evenodd" d="M27.5272 15.0686L23.7887 15.056L23.7896 5.01214L27.5487 5.00936C27.4803 4.91362 25.912 4.97084 25.6922 4.97084C25.1453 4.97084 24.282 4.91936 23.7737 4.97899C23.7257 5.13899 23.7061 14.8301 23.7703 15.0912C24.1165 15.1358 26.5287 15.1014 27.2913 15.1032L27.5009 15.0812C27.5076 15.0794 27.5185 15.0729 27.5272 15.0686Z" fill="#79BBE7"/>
<path fill-rule="evenodd" clip-rule="evenodd" d="M54.5932 9.08121C54.6156 9.90288 54.5488 14.7988 54.6254 15.0923L56.7554 15.1016C56.811 14.8662 56.7767 11.0486 56.7767 10.4707C56.7767 10.1944 56.8508 9.10899 56.7197 8.96288L56.7363 15.059L54.6445 15.0575C54.6138 14.4612 54.691 9.13621 54.5932 9.08121Z" fill="#79BBE7"/>
<path fill-rule="evenodd" clip-rule="evenodd" d="M50.3941 9.07603C50.2617 9.23862 50.3858 14.3436 50.3373 15.059L48.2477 15.0579C48.1806 14.0373 48.2432 11.6907 48.2432 10.4327L48.2723 8.93233C48.1534 8.98399 48.2066 11.6581 48.2066 11.9918C48.2066 12.4777 48.1488 14.8149 48.2319 15.0934L50.3608 15.1012L50.3941 9.07603Z" fill="#79BBE7"/>
</g>
<defs>
<clipPath id="clip0_11_2330">
<rect width="68.5926" height="20" fill="white" transform="translate(0.407227)"/>
</clipPath>
</defs>
</svg>
