<svg width="29" height="26" viewBox="0 0 29 26" fill="none" xmlns="http://www.w3.org/2000/svg">
<g clip-path="url(#clip0_11_2309)">
<path d="M1.7284 25.4921C1.19191 25.2127 0.769502 24.9679 0.789239 24.9482C0.857835 24.8796 3.42428 24.332 5.21644 24.0035C9.09463 23.2925 13.7055 22.7235 18.2983 22.3892C20.1896 22.2515 27.0323 22.2467 28.2189 22.3825L28.9971 22.4715L28.12 22.485C26.563 22.5093 22.9924 22.7591 20.1949 23.0395C14.8995 23.5707 9.01232 24.5496 4.7536 25.6074C3.88375 25.8233 3.06662 26 2.93785 26C2.80885 26 2.26465 25.7716 1.7284 25.4921ZM9.1317 20.1621C9.05227 19.9424 9.38514 19.8439 9.53028 19.7814C10.1823 19.5019 10.641 19.0463 10.7946 18.5259C10.868 18.2771 11.0919 16.8695 11.2919 15.3984C11.4919 13.9274 11.6714 12.7896 11.6912 12.7227C11.7056 12.6734 11.7451 12.4979 11.9562 12.4789C12.4948 12.4736 12.8948 12.4806 13.4467 12.4806C13.7517 12.4512 13.6918 12.7851 13.6679 12.9988C13.6439 13.2688 13.5712 13.7899 13.4865 14.4258C13.3832 15.2016 13.2289 16.361 13.1437 17.0021C12.9519 18.4434 12.8455 18.887 12.5141 19.6295C12.1193 20.5128 11.5162 21.026 10.4227 21.3913C10.2018 21.4604 9.56879 21.6758 9.49971 21.4845C9.35674 21.0262 9.25541 20.6279 9.1317 20.1621ZM21.6886 19.6788C20.9598 19.385 20.9942 18.2487 21.7586 17.7827C22.2422 17.4876 22.9219 17.5379 23.2711 17.8872C24.1318 18.7476 22.8663 20.1542 21.6886 19.6788ZM16.1809 19.0003C14.0386 18.6345 14.0528 16.0801 14.5327 14.6205C15.1337 12.9309 16.5983 12.4399 17.802 12.3971C18.8179 12.3624 20.2259 12.5514 20.5795 12.7697C20.6772 12.8301 20.6313 13.4157 20.3586 15.5871C20.1694 17.0946 19.9621 18.3912 19.8984 18.4679C19.5592 18.8766 17.2867 19.202 16.1809 19.0003ZM18.0496 16.9788C18.2797 16.1232 18.3767 15.3508 18.5414 14.4482C18.5209 14.137 17.9957 14.1348 17.8621 14.1341C17.1666 14.1341 16.7557 14.5245 16.5381 15.3927C16.2394 16.5831 16.5511 17.2464 17.4097 17.2464C17.6809 17.2214 17.9642 17.2363 18.0496 16.9788ZM2.39246 18.311C2.97805 16.8804 5.33028 11.7581 5.8947 10.6971C6.00132 10.4328 6.28244 10.3806 6.47475 10.3621C7.02809 10.3368 7.50634 10.3435 7.99204 10.3471C8.49243 10.3515 8.4999 10.5269 8.5644 10.899C8.6431 11.2699 9.61981 17.1008 9.84076 18.5004C9.86892 18.7329 9.92597 18.8051 9.62342 18.8056C9.20415 18.8068 8.19494 18.8615 7.85269 18.8355C7.74341 18.8213 7.67193 18.7495 7.65508 18.6689C7.62379 18.5187 7.58841 18.2609 7.56434 17.9923L7.50201 17.2951H6.24538H4.98851L4.71388 17.9656C4.61592 18.2041 4.5093 18.4393 4.42963 18.5953C4.37379 18.7385 4.29076 18.8044 4.16656 18.8316C3.85872 18.829 2.76841 18.8694 2.35852 18.8333C2.15586 18.7402 2.33926 18.4412 2.39246 18.311ZM7.28057 15.3537C7.24495 14.977 7.0045 13.0339 6.94794 12.747C6.93302 12.7162 6.92604 12.7261 6.91088 12.7444C6.76237 12.9673 5.95896 14.9392 5.82225 15.3972C5.80564 15.4603 5.8468 15.4834 5.90649 15.4784C6.11035 15.4644 6.94337 15.4488 7.19657 15.4391C7.26878 15.4336 7.276 15.4083 7.28057 15.3537ZM21.7851 16.2981C21.8176 16.0442 21.8888 15.3549 21.9435 14.7664C21.9979 14.1779 22.0852 13.2587 22.1375 12.7239C22.1769 12.3179 22.2118 11.9239 22.2268 11.7164C22.2573 11.5306 22.4821 11.5087 22.6297 11.5073C23.1221 11.5126 23.5857 11.4832 24.0283 11.5241C24.2377 11.5455 24.3251 11.5917 24.3258 11.7162C24.1263 12.7403 23.4088 16.2738 23.3537 16.4926C23.306 16.6813 23.2868 16.7369 22.9987 16.7533C22.6458 16.7475 22.3517 16.766 21.9935 16.7643C21.7882 16.7617 21.7334 16.7013 21.7851 16.2981ZM11.8515 11.0487C11.8515 10.4244 12.2532 9.94857 12.756 9.74832C13.1906 9.5962 13.6778 9.59668 13.9373 9.89297C14.3975 10.428 14.0954 11.2187 13.5577 11.6305C12.8688 12.1044 11.8628 11.8242 11.8515 11.0487ZM24.1927 9.73291C24.0423 9.3986 23.5597 8.34391 23.1202 7.3891C22.6807 6.43429 22.3445 5.59237 22.3729 5.51848C22.4013 5.44459 22.8911 4.83613 23.4613 4.16654L24.3893 3.07646C24.4502 3.00306 24.5198 2.91328 24.604 2.91208C25.1634 2.91496 25.743 2.94842 26.2768 2.94312C26.6744 2.93975 26.8744 2.914 26.5796 3.21318C26.3907 3.44712 26.0186 3.87506 25.5928 4.34465C24.9776 5.02338 24.4743 5.5967 24.4743 5.61909C24.4743 5.64123 24.9357 6.65476 25.4994 7.87144C25.9425 8.82721 26.3083 9.68213 26.4318 10.0391C26.4843 10.1604 26.4381 10.2641 26.3254 10.2925C26.1762 10.3272 25.9078 10.3409 25.446 10.3409H24.7542C24.5853 10.3585 24.4608 10.3289 24.3958 10.1842L24.1927 9.73291ZM3.48903 9.02144C2.86661 8.71119 2.57225 8.31839 2.51858 7.72678C2.48656 7.37201 3.06662 2.60424 3.32368 1.08815C3.38649 0.732171 3.41369 0.711953 3.75499 0.711953H4.4265C4.77935 0.711953 5.10043 0.705936 5.30236 0.717489C5.57843 0.72134 5.52789 0.895357 5.50671 1.10355C5.45929 1.56856 5.31151 2.57559 5.12594 3.87242C4.79668 6.17315 4.71292 6.98499 4.79163 7.11014C4.88381 7.25624 5.118 7.28055 6.66899 7.30366L8.05631 7.32435C8.38677 7.30606 8.45513 7.38717 8.42263 7.68394C8.34176 8.17494 8.29724 8.5663 8.21685 9.00628C8.16149 9.2809 7.98434 9.20918 7.70827 9.22602L6.08628 9.24865C4.0065 9.27464 3.99543 9.27368 3.48903 9.02144ZM19.4873 9.1981C19.4663 9.15791 19.5243 8.6 19.6163 7.95784C19.7082 7.31593 19.9 5.93727 20.0428 4.89413C20.4481 1.93272 20.5812 1.04049 20.6375 0.699197C20.6972 0.300859 20.6974 0.323002 21.0878 0.323002H21.7066C21.9483 0.323002 22.1368 0.319633 22.2824 0.324446C22.8381 0.342498 22.7676 0.294601 22.6273 1.1553C22.5741 1.48071 22.3977 2.91256 22.235 4.11599C21.8251 7.14721 21.5562 9.00556 21.5071 9.14949C21.4609 9.28427 19.5563 9.33 19.4873 9.1981ZM8.91243 8.96753C9.17069 6.80134 9.41715 5.16346 9.70381 3.14795C9.72547 2.90654 9.96255 2.87862 10.2396 2.87838C10.5549 2.8779 10.8752 2.87381 11.1754 2.88391C11.7569 2.88584 11.9097 2.96358 11.8493 3.35253C11.5918 5.24482 11.2733 6.93372 10.9393 8.85753C10.8767 9.18342 10.8004 9.17379 10.4892 9.17379C10.1267 9.175 9.48358 9.18703 9.15505 9.17813C8.96274 9.14395 8.91917 9.12229 8.91243 8.96753ZM13.0159 4.1184C13.1755 3.28081 13.286 3.15012 13.5177 2.99824C13.8034 2.81099 15.9155 2.61579 16.6447 2.70918C16.7466 2.72386 16.8433 2.74215 16.9357 2.76405C19.0718 3.27142 18.7399 5.69033 18.6011 6.80327C18.4545 7.86638 18.311 8.83443 18.2817 8.95501C18.2306 9.16441 18.1851 9.17379 17.2178 9.17379C16.8927 9.17379 16.723 9.16248 16.5381 9.14515C16.2392 9.12566 16.2115 9.05851 16.2414 8.84116C16.3502 7.95303 16.497 7.18716 16.6065 6.35751C16.7538 5.22532 16.7146 4.10757 15.3097 4.34777C15.069 4.40891 15.003 4.42816 14.97 4.66837C14.7946 5.7866 14.6405 6.9419 14.4803 8.03583C14.4451 8.29697 14.396 8.56967 14.3455 8.81156C14.3325 8.87318 14.3252 8.92829 14.3142 8.96897C14.2997 9.01735 14.2665 9.06741 14.2347 9.01783C14.009 8.60674 12.9468 8.67533 12.5037 8.97691C12.2813 9.13143 12.2356 9.21471 12.3263 8.74345C12.3422 8.64356 12.3579 8.54368 12.373 8.44403C12.593 7.00087 12.7413 5.5813 13.0159 4.1184ZM9.98349 1.63956C9.74617 0.830131 10.4526 0.0303267 11.2437 0.00264763C12.3158 -0.0690772 12.6118 1.40537 11.515 2.074C10.8798 2.36475 10.2121 2.30314 9.98349 1.63956Z" fill="#E9232A"/>
</g>
<defs>
<clipPath id="clip0_11_2309">
<rect width="28.2148" height="26" fill="white" transform="translate(0.785156)"/>
</clipPath>
</defs>
</svg>
