<svg width="69" height="30" viewBox="0 0 69 30" fill="none" xmlns="http://www.w3.org/2000/svg">
<path fill-rule="evenodd" clip-rule="evenodd" d="M4.36295 4.90631H26.1489C27.5981 4.90631 28.784 6.09228 28.784 7.54143V22.7867C28.784 24.2359 27.5981 25.4219 26.1489 25.4219H3.72935C2.2802 25.4219 1.09424 24.2359 1.09424 22.7867V3.95429C1.09424 3.26871 1.6596 2.79432 2.33869 2.70984L22.4286 0.146214C23.1142 0.146214 23.673 0.705078 23.673 1.39066V3.52215H3.1055C3.1055 4.41568 3.37194 4.90631 4.3597 4.90631H4.36295ZM16.58 21.6105C14.7474 21.9614 12.3918 21.3506 11.1116 19.9729C10.5332 19.3523 11.4657 18.4133 12.0473 19.0404C12.9084 19.9697 14.4453 20.4018 15.6995 20.3726C17.2981 20.3368 18.718 18.8844 17.8114 17.2598C16.554 15.0114 13.4607 15.6417 11.8686 13.8741C10.5819 12.4477 11.1928 10.2058 12.7037 9.21477C14.2796 8.17827 16.9991 8.21726 18.2956 9.7054C18.8544 10.3422 17.9187 11.2813 17.3598 10.6379C16.3136 9.43897 13.8409 9.60143 12.8954 10.8361C11.5535 12.6005 13.5615 13.5492 14.9651 13.9749C16.8952 14.5597 19.0364 15.6287 19.3873 17.8414C19.6667 19.622 18.2891 21.2824 16.58 21.6105Z" fill="#EE4E2C"/>
<path fill-rule="evenodd" clip-rule="evenodd" d="M16.5798 21.6105C14.7472 21.9614 12.3916 21.3506 11.1114 19.9729C10.533 19.3523 11.4655 18.4133 12.0471 19.0404C12.9082 19.9697 14.4451 20.4018 15.6993 20.3726C17.2979 20.3368 18.7178 18.8844 17.8113 17.2598C16.5571 15.0114 13.4606 15.6417 11.8684 13.8774C10.5817 12.451 11.1926 10.209 12.7035 9.21477C14.2794 8.17827 16.9989 8.21726 18.2954 9.7054C18.8542 10.3422 17.9185 11.2813 17.3596 10.6379C16.3134 9.43897 13.8407 9.60143 12.8984 10.8361C11.5565 12.6005 13.5645 13.5492 14.9682 13.9749C16.8982 14.5597 19.0395 15.6287 19.3904 17.8414C19.6698 19.622 18.2921 21.2824 16.583 21.6105H16.5798Z" fill="#FEFEFE"/>
<path d="M54.1019 3.97054C53.3221 3.97054 52.6235 4.30196 52.1426 4.82508V4.21748C52.1426 3.66836 51.2589 3.66511 51.2589 4.21748V11.4112C51.2589 11.9636 52.1426 11.9636 52.1426 11.4112V8.20752C52.6235 8.73064 53.3221 9.05881 54.1019 9.05881C55.5478 9.05881 56.724 7.91834 56.724 6.51468C56.724 5.11101 55.5478 3.97054 54.1019 3.97054ZM54.1019 8.13928C53.1759 8.13928 52.4253 7.40821 52.4253 6.51468C52.4253 5.70887 53.0329 5.03628 53.8322 4.90956C53.8355 4.90956 53.842 4.90631 53.8452 4.90631C53.9297 4.89332 54.0142 4.88682 54.0987 4.88682C54.781 4.88682 55.3724 5.28647 55.6323 5.85833C55.6323 5.86158 55.6355 5.86483 55.6355 5.86483C55.7265 6.06304 55.7753 6.28398 55.7753 6.51143C55.7753 7.40821 55.0247 8.13603 54.1019 8.13603V8.13928ZM47.5905 9.05881C46.1446 9.05881 44.9684 7.91834 44.9684 6.51468C44.9684 5.11101 46.1446 3.97054 47.5905 3.97054C49.0364 3.97054 50.2126 5.11101 50.2126 6.51468C50.2126 7.91834 49.0364 9.05881 47.5905 9.05881ZM47.5905 4.89007C46.6677 4.89007 45.9139 5.61789 45.9139 6.51468C45.9139 7.41146 46.6645 8.13928 47.5905 8.13928C48.5133 8.13928 49.2671 7.41146 49.2671 6.51468C49.2671 5.61789 48.5165 4.89007 47.5905 4.89007ZM68.6714 6.46594C68.6487 5.29622 68.0313 4.24023 66.7544 4.00628C65.6529 3.80483 64.3662 4.36694 63.8951 5.3677C63.4077 6.40745 63.6124 7.83386 64.5741 8.55843C65.6139 9.34149 67.2352 9.10105 68.3042 8.51944C68.8014 8.24976 68.3562 7.51219 67.8591 7.77862C67.1833 8.14578 66.2995 8.32774 65.5424 8.0808C64.977 7.89884 64.6586 7.42446 64.5611 6.89158H68.2328C68.4667 6.89158 68.6779 6.69338 68.6746 6.46269L68.6714 6.46594ZM64.5904 6.03704C64.5969 6.00455 64.6066 5.97206 64.6164 5.94281C64.8276 5.24423 65.5489 4.84133 66.28 4.82184C67.1215 4.79909 67.5927 5.3612 67.7389 6.03704H64.5904ZM62.7936 6.47244C62.7708 5.30272 62.1535 4.24672 60.8765 4.01278C59.775 3.81133 58.4884 4.37344 58.0172 5.3742C57.5298 6.41395 57.7345 7.84036 58.6963 8.56493C59.7361 9.34799 61.3574 9.10755 62.4264 8.52594C62.9235 8.25626 62.4784 7.51868 61.9813 7.78512C61.3054 8.15228 60.4216 8.33424 59.6646 8.0873C59.0992 7.90534 58.7808 7.43095 58.6833 6.89808H62.3549C62.5889 6.89808 62.8001 6.69988 62.7968 6.46919L62.7936 6.47244ZM58.7126 6.04354C58.7191 6.01105 58.7288 5.97856 58.7385 5.94931C58.9497 5.25073 59.6711 4.84783 60.4021 4.82833C61.2437 4.80559 61.7148 5.3677 61.861 6.04354H58.7126ZM43.9286 5.64714V8.62017C43.9286 9.18228 43.0448 9.18228 43.0448 8.62017V5.70562C43.0156 5.13051 42.5217 4.86407 42.5055 4.85758C41.8784 4.58464 40.7346 4.71136 40.0556 5.5724V8.62017C40.0556 9.18228 39.1718 9.18228 39.1718 8.62017V0.984512C39.1718 0.425647 40.0556 0.425647 40.0556 0.984512V4.41568C41.1376 3.69436 42.5152 3.77559 43.1618 4.21748C43.1618 4.21748 43.9384 4.64313 43.9254 5.65038L43.9286 5.64714ZM37.7291 1.33543C36.8648 0.380158 35.0485 0.357413 33.9958 1.0235C32.9885 1.66035 32.5791 3.103 33.4369 4.01603C34.4994 5.15001 36.5659 4.7471 37.4075 6.18651C38.0151 7.2295 37.063 8.16203 35.9973 8.18477C35.1622 8.20102 34.1355 7.92484 33.5571 7.32698C33.1705 6.92733 32.5466 7.52843 32.9333 7.92808C33.7878 8.81187 35.3637 9.20503 36.5854 8.97758C37.7259 8.76638 38.6487 7.70064 38.4602 6.55692C38.2263 5.13701 36.7966 4.45142 35.5067 4.07452C34.5676 3.80158 33.2257 3.19073 34.1257 2.06C34.7561 1.26719 36.4067 1.15997 37.1053 1.93328C37.4789 2.34593 38.1028 1.74483 37.7291 1.33218V1.33543Z" fill="#EE4E2C"/>
<path fill-rule="evenodd" clip-rule="evenodd" d="M60.7465 29.8538H57.9424L60.9414 24.1839L56.0156 14.8782H59.0569L62.4621 21.3084L65.8672 14.8782H68.6713L60.7465 29.8538ZM32.813 25.4186H35.1622V21.1231H38.3302C41.6151 21.1231 44.2795 18.8195 44.2795 15.9764C44.2795 13.1333 41.6151 10.8296 38.3302 10.8296H32.813C32.813 15.6937 32.813 20.5545 32.813 25.4186ZM35.1622 18.774V13.1788H38.3302C40.114 13.1788 41.5631 14.4298 41.5631 15.9764C41.5631 17.5198 40.1172 18.774 38.3302 18.774H35.1622ZM53.0783 14.9724H55.1416V25.3276H53.0783V24.1644C52.1588 24.9475 50.9664 25.4186 49.6667 25.4186C46.7554 25.4186 44.3964 23.0597 44.3964 20.1484C44.3964 17.2371 46.7554 14.8782 49.6667 14.8782C50.9696 14.8782 52.1588 15.3493 53.0783 16.1324V14.9691V14.9724ZM49.6667 17.1006C51.3498 17.1006 52.7144 18.4653 52.7144 20.1484C52.7144 21.8315 51.3498 23.1961 49.6667 23.1961C47.9836 23.1961 46.6189 21.8315 46.6189 20.1484C46.6189 18.4653 47.9836 17.1006 49.6667 17.1006Z" fill="#EE4E2C"/>
</svg>
