<svg width="142" height="55" viewBox="0 0 142 55" fill="none" xmlns="http://www.w3.org/2000/svg">
<path d="M38.7504 39.1852C38.7504 40.845 37.4035 42.1936 35.7419 42.1936C34.0821 42.1936 32.7334 40.8468 32.7334 39.1852V11.0752L6.21715 41.1223C5.12072 42.3618 3.22657 42.4762 1.98885 41.3816C0.749335 40.2852 0.633072 38.391 1.7295 37.1533L33.3237 1.35408C33.871 0.613596 34.751 0.134247 35.7419 0.134247C37.4017 0.134247 38.7504 1.48108 38.7504 3.1427V39.1852Z" fill="#0B5D6F"/>
<path d="M38.7504 39.1852C38.7504 40.845 37.4035 42.1936 35.7419 42.1936C34.0821 42.1936 32.7334 40.8468 32.7334 39.1852V11.0752L6.21715 41.1223C5.12072 42.3618 3.22657 42.4762 1.98885 41.3816C0.749335 40.2852 0.633072 38.391 1.7295 37.1533L33.3237 1.35408C33.871 0.613596 34.751 0.134247 35.7419 0.134247C37.4017 0.134247 38.7504 1.48108 38.7504 3.1427V39.1852Z" fill="#0B5D6F"/>
<path d="M130.879 11.1699C128.407 8.65513 124.989 7.09724 121.209 7.09724C117.43 7.09724 114.014 8.65334 111.542 11.1699C109.056 13.699 107.517 17.2083 107.517 21.0968C107.517 24.9834 109.056 28.4945 111.542 31.0236C114.014 33.5384 117.432 35.0963 121.209 35.0963C124.987 35.0963 128.407 33.5402 130.879 31.0254C133.365 28.4963 134.901 24.9852 134.901 21.0986C134.903 17.2083 133.365 13.699 130.879 11.1699ZM121.209 0C126.953 0 132.156 2.37171 135.924 6.2083C139.677 10.027 142 15.2927 142 21.0968C142 26.9008 139.677 32.1665 135.924 35.987C132.156 39.8218 126.953 42.1935 121.209 42.1935C115.466 42.1935 110.263 39.8201 106.496 35.9853C102.742 32.1648 100.42 26.8991 100.42 21.0968C100.42 15.2945 102.742 10.027 106.496 6.2083C110.263 2.37171 115.466 0 121.209 0ZM65.2469 38.6431C65.2469 40.6035 63.6569 42.1918 61.6983 42.1918C59.7398 42.1918 58.1497 40.6017 58.1497 38.6431V3.58976C58.1497 1.62943 59.7398 0.0411375 61.6983 0.0411375C62.8699 0.0411375 63.9055 0.60813 64.553 1.48276L88.9354 29.1098L88.601 3.63269C88.5777 1.67951 90.1428 0.0786989 92.0941 0.0554468C94.0455 0.0321947 95.6481 1.59724 95.6714 3.54862L96.1293 38.5555C96.14 39.5482 95.7358 40.5373 94.9363 41.2456C93.475 42.5388 91.2392 42.401 89.946 40.9397L65.2469 12.9532V38.6431ZM52.5245 38.6431C52.5245 40.6035 50.9344 42.1918 48.9759 42.1918C47.0155 42.1918 45.4272 40.6017 45.4272 38.6431V3.58976C45.4272 1.62943 47.0173 0.0411375 48.9759 0.0411375C50.9362 0.0411375 52.5245 1.63122 52.5245 3.58976V38.6431Z" fill="#0B5D6F"/>
<path fill-rule="evenodd" clip-rule="evenodd" d="M23.3914 34.1162C25.6129 34.1162 27.4122 35.9173 27.4122 38.1388C27.4122 40.3603 25.6111 42.1596 23.3914 42.1596C21.17 42.1596 19.3706 40.3585 19.3706 38.1388C19.3706 35.9155 21.17 34.1162 23.3914 34.1162Z" fill="#0B5D6F"/>
<path fill-rule="evenodd" clip-rule="evenodd" d="M135.91 54.9356H137.121V50.5517L140.503 54.9356H141.703V48.6862H140.503V53.1005L137.131 48.6862H135.912V54.9356H135.91ZM126.672 51.8538C126.672 49.6592 127.265 49.5751 128.478 49.5751C129.723 49.5751 130.27 49.6878 130.27 51.8538C130.27 53.6997 129.837 54.0395 128.478 54.0395C127.06 54.0395 126.672 53.7372 126.672 51.8538ZM125.471 51.8538C125.471 54.6977 126.616 54.9696 128.478 54.9696C130.34 54.9696 131.47 54.6119 131.47 51.8538C131.47 48.9258 130.267 48.6432 128.478 48.6432C126.74 48.6432 125.471 48.924 125.471 51.8538ZM119.83 54.9356H121.03V48.6862H119.83V54.9356ZM110.068 49.6162H112.173V54.9356H113.373V49.6162H115.539V48.6862H110.068V49.6162ZM100.12 52.2026C100.12 55.0465 101.588 54.9767 102.994 54.9767C104.246 54.9767 105.816 54.9588 105.816 52.2026V48.6844H104.607V52.2026C104.607 53.8535 103.981 54.0466 102.994 54.0466C101.863 54.0466 101.318 53.9107 101.318 52.2026V48.6844H100.118V52.2026H100.12ZM91.688 53.7694C91.688 54.7335 92.4285 54.9356 93.2029 54.9356H96.3312V54.0055H93.5285C93.228 54.0055 92.8881 54.0145 92.8881 53.5619V48.6862H91.688V53.7694ZM82.448 51.8538C82.448 49.6592 83.0418 49.5751 84.2545 49.5751C85.4994 49.5751 86.0467 49.6878 86.0467 51.8538C86.0467 53.6997 85.6138 54.0395 84.2545 54.0395C82.8379 54.0395 82.448 53.7372 82.448 51.8538ZM81.2478 51.8538C81.2478 54.6977 82.3925 54.9696 84.2545 54.9696C86.1164 54.9696 87.2468 54.6119 87.2468 51.8538C87.2468 48.9258 86.0431 48.6432 84.2545 48.6432C82.5159 48.6432 81.2478 48.924 81.2478 51.8538ZM71.811 50.761C71.811 51.3673 71.9613 52.3475 73.7266 52.3475H74.9966C75.594 52.3475 75.7406 52.6193 75.7406 53.0236V53.4492C75.7406 54.0288 75.0967 54.0717 74.6639 54.0717C73.6998 54.0717 72.4567 54.0127 72.0418 53.9769V54.7603C72.7125 54.9052 73.8358 55 74.8463 55C75.8712 55 76.9408 54.7639 76.9408 53.4206V52.9431C76.9408 52.2491 76.66 51.3548 75.213 51.3548H73.9144C73.3153 51.3548 73.0094 51.2653 73.0094 50.6697V50.2691C73.0094 49.5894 73.4458 49.5447 74.1148 49.5626C74.3544 49.5626 76.0053 49.6037 76.6671 49.6484V48.865C76.1431 48.7577 74.7533 48.6218 73.859 48.6325C72.6982 48.6432 71.8092 48.9741 71.8092 50.2101V50.761H71.811ZM59.5983 49.6162H61.7035V54.9356H62.9037V49.6162H65.0697V48.6862H59.5983V49.6162ZM49.557 54.9356H50.7679V50.5517L54.1502 54.9356H55.3504V48.6862H54.1502V53.1005L50.7786 48.6862H49.5588V54.9356H49.557ZM40.317 53.7694C40.317 54.8533 41.2632 54.9875 41.9411 54.9588C41.9411 54.9588 44.7707 54.8569 45.1445 54.814V54.0145H42.1575C41.857 54.0145 41.5225 54.0234 41.5172 53.5709V52.3296L44.6955 52.2437V51.4353L41.5172 51.3494V50.1081C41.5172 49.8774 41.5172 49.6305 42.0555 49.6305H45.1463V48.8221C44.7224 48.7738 41.8391 48.6862 41.8391 48.6862C41.1326 48.6683 40.3188 48.9205 40.3188 49.9149V53.7694H40.317ZM28.3851 54.9356H29.5728L30.0092 50.4247L31.5456 54.9356H32.8602L34.3448 50.4247L34.8277 54.9356H36.0172L35.3554 48.6862H33.6991L32.1895 53.2936L30.6531 48.6862H28.9915L28.3851 54.9356ZM18.4601 48.6862L20.8049 52.8948V54.9356H22.0051V52.8948L24.5414 48.6862H23.2339L21.4202 51.7858L19.7711 48.6862H18.4601ZM11.5363 52.5192L12.5701 50.0401L13.5557 52.5192H11.5363ZM9.26834 54.9356H10.6009L11.1947 53.4242H13.8723L14.4518 54.9356H15.7628L13.2319 48.6862H11.9048L9.26834 54.9356ZM2.06557 51.641V49.5983H3.99906C4.36215 49.5983 4.84509 49.7057 4.85761 50.5821C4.85761 51.471 4.48736 51.641 3.99906 51.641H2.06557ZM0.867188 54.9356H2.06736V52.3725C2.11923 52.3904 3.65923 52.5263 4.07419 52.5353C4.9059 52.5549 6.07029 52.4279 6.07029 50.5714C6.07029 48.9437 4.97745 48.6862 4.07419 48.6862H0.868978V54.9356H0.867188Z" fill="#0B5D6F"/>
</svg>
