<svg width="77" height="20" viewBox="0 0 77 20" fill="none" xmlns="http://www.w3.org/2000/svg">
<rect width="76.4605" height="20" transform="translate(0.539551)" fill="#FFC600"/>
<path d="M17.3855 9.99999C17.3855 13.7728 14.3125 16.8458 10.5397 16.8458C6.76687 16.8458 3.69385 13.7728 3.69385 9.99999C3.69385 6.22717 6.76687 3.15414 10.5397 3.15414C14.3125 3.15414 17.3855 6.22717 17.3855 9.99999Z" fill="#FFC600"/>
<path d="M10.5397 16.8458C6.76688 16.8458 3.69386 13.7728 3.69386 9.99999C3.69386 6.22717 6.76688 3.15415 10.5397 3.15415C14.3125 3.15415 17.3855 6.22717 17.3855 9.99999C17.3855 13.7728 14.3125 16.7647 10.5397 16.8458ZM10.5397 2.53549C6.41191 2.53549 3.0752 5.8722 3.0752 9.99999C3.0752 14.1278 6.41191 17.4645 10.5397 17.4645C14.6675 17.4645 18.0042 14.1278 18.0042 9.99999C18.0042 5.8722 14.6675 2.53549 10.5397 2.53549Z" fill="black"/>
<path d="M7.54798 9.64502C7.0206 9.55374 6.58449 10.1724 6.3208 10.6085C6.41208 9.90871 7.20315 8.85395 7.54798 9.64502Z" fill="black"/>
<path d="M6.41211 9.64501C6.58452 9.02635 7.03077 8.76266 7.20318 8.94522C6.84821 9.11763 6.58452 9.30018 6.41211 9.64501Z" fill="black"/>
<path d="M7.7306 10.6187C7.99429 10.355 7.99429 10.0913 7.55818 9.91887C7.12208 9.74646 6.5947 10.4463 6.50342 11.0649C6.76711 10.6998 7.54804 10.0913 7.7306 10.6187Z" fill="black"/>
<path d="M12.0305 12.2819C12.1218 11.4909 11.3307 11.0548 11.1482 10.2637C10.9758 9.4726 12.3754 8.15414 11.5032 6.75455C13.1766 8.07301 11.8581 8.86408 12.6492 9.91885C12.3855 9.82757 12.1218 9.65516 11.9494 9.39146C11.5032 9.99998 13.0853 10.7911 12.0305 12.2819Z" fill="black"/>
<path d="M9.3936 5.78091C9.56602 5.78091 9.92099 5.95333 9.82971 6.04461C9.3936 6.48071 8.77494 6.3083 8.24756 6.7444C8.43011 6.22716 9.31247 6.13588 9.3936 5.78091Z" fill="black"/>
<path d="M8.86605 7.53548C8.77477 7.53548 8.77477 7.4442 8.77477 7.36306C8.86605 7.53548 9.03846 7.45434 8.94718 7.19065H9.30215C9.0486 7.27179 8.95733 7.53548 8.86605 7.53548ZM10.8843 6.3083C11.0567 6.13588 10.8843 5.78091 10.0932 5.68964C10.8843 6.04461 9.56584 6.12574 9.56584 6.83568C9.12974 7.0081 8.77477 6.7444 8.60236 6.92696C8.42994 7.10952 8.16625 7.01824 8.24739 6.75454C8.07497 6.84582 8.07497 7.01824 8.15611 7.19065C8.15611 7.28193 8.24739 7.28193 8.32852 7.36306L8.4198 7.45434C8.15611 7.71803 8.06483 7.89045 8.32852 8.15414C8.4198 7.98173 8.59221 7.79917 8.76463 7.62676C8.93704 7.71803 9.20073 7.62676 9.5557 7.27179C9.29201 8.32655 8.50094 8.41783 8.23724 8.41783C8.40966 8.59025 9.38329 8.7728 9.46442 8.32655C9.72812 7.36306 10.6916 6.91682 9.90053 6.91682C9.92081 6.75455 10.7119 6.49085 10.8843 6.3083Z" fill="black"/>
<path d="M11.2396 5.8722C11.5946 6.04462 11.8583 6.30831 12.0307 6.572C12.122 6.04462 11.8583 5.51723 11.5033 5.16226C11.412 5.08113 11.1484 5.60851 11.2396 5.8722Z" fill="black"/>
<path d="M5.09326 9.11764C5.44823 8.23529 6.14803 7.53549 6.9391 7.09938C7.2028 6.48072 7.11152 6.13589 9.48474 5.17241C9.57602 4.81744 9.57602 4.38133 9.65716 4.38133C9.92085 4.47261 10.1845 4.64502 10.357 4.90871H10.6206C10.7119 4.55374 10.7931 4.20892 10.9756 3.85395C11.148 3.59026 11.503 3.59025 11.9391 3.94522C12.4665 4.30019 12.9026 4.7363 13.3488 5.26368C14.1399 5.52737 14.8397 6.05476 15.3671 6.67342C15.1034 6.50101 14.7484 6.40973 14.4036 6.31845C15.1034 6.93711 15.3671 7.99188 15.1034 8.86409C14.931 7.98174 14.4036 7.28194 13.6937 6.93711C13.9574 7.9006 12.8113 7.55577 12.3752 6.84583C12.4665 6.93711 12.5476 6.93711 12.7302 6.84583C12.7302 5.88234 12.3752 4.99999 11.6754 4.30019C11.3204 3.94522 11.0568 4.7363 10.9756 5.35496C10.9756 5.52738 10.7119 5.70993 10.5395 5.70993C10.6308 5.61865 10.6308 5.53752 10.6308 5.35496C10.0121 5.44624 9.48474 5.61865 8.95736 5.97362C7.90259 6.40973 7.6389 6.67342 7.37521 7.46449C6.41172 7.79918 5.71192 8.41784 5.09326 9.11764Z" fill="black"/>
<path d="M10.3674 8.94521C10.8948 9.73628 10.8948 10.6998 10.3674 11.4908C10.5398 10.5274 9.93132 8.59024 9.31266 9.56387C9.66763 9.65515 9.93132 10.0913 9.84004 10.5274C9.66763 10.0913 9.14025 9.9087 8.694 9.99997C8.43031 10.0913 8.07534 9.99997 7.90292 9.73628C7.63923 9.30018 8.07534 8.77279 7.20312 8.77279C8.25789 8.24541 7.9942 9.30018 8.43031 9.39145C8.86641 9.48273 9.1301 9.12776 9.31266 8.95535C9.48507 8.69166 9.84004 8.60038 10.1037 8.78293C10.2761 8.34683 10.0125 7.55576 10.4587 7.20079C10.7224 7.02837 11.1585 7.10951 11.4222 7.29206C11.0672 7.27178 10.621 7.71803 10.3674 8.94521Z" fill="black"/>
<path d="M7.9941 13.1643C7.90283 13.073 7.82169 12.9006 7.82169 12.7282C7.91297 12.8195 8.08538 12.9006 8.2578 12.9006C8.16652 13.073 8.07524 13.1643 7.9941 13.1643ZM9.04887 12.0182C9.14015 12.0182 9.22128 12.1095 9.31256 12.0182C9.40384 11.927 9.31256 11.6633 9.22128 11.5821C9.31256 11.5821 9.65739 11.5821 9.65739 11.7546C9.65739 12.1095 9.3937 12.1907 8.86631 12.4544C8.95759 12.3732 8.95759 12.1907 9.04887 12.0182ZM6.93934 11.6633C7.03061 11.572 7.11175 11.4909 7.29431 11.3996C7.29431 11.6633 7.29431 11.8357 7.38558 12.0994C7.28416 12.1907 6.93934 11.927 6.93934 11.6633ZM5.5296 10.355C5.35719 10.1825 5.17463 9.99999 5.00222 9.82758C5.09349 9.7363 5.26591 9.56389 5.43832 9.56389C5.61074 9.56389 5.70201 9.65517 5.61074 9.65517C5.51946 9.65517 5.43832 9.65517 5.43832 9.82758C5.43832 9.99999 5.5296 10.0913 5.61074 10.1825C5.71216 10.1724 5.62088 10.355 5.5296 10.355ZM15.7223 7.01825C16.2497 8.6004 16.1584 10.2637 15.5499 11.7647C15.6412 11.0649 15.0225 10.0913 15.2862 8.95537C14.1401 10.0101 15.9049 12.7282 13.3592 14.4828C13.7142 13.6004 13.8866 12.7282 13.7953 11.7647C13.9677 11.856 14.059 11.9371 14.1503 12.1197C14.414 11.2373 14.3227 10.2738 13.9779 9.40162C14.1503 9.40162 14.414 9.57403 14.5053 9.66531C14.5965 8.08316 13.4505 7.99188 13.1868 7.55578C13.1868 7.99188 13.7142 8.34685 13.8055 8.96551C13.5418 8.7931 13.1868 8.7931 12.9231 8.7931C13.5418 9.49289 13.8055 10.3752 13.6229 11.2475C13.3592 11.075 13.0955 10.8925 12.8318 10.8925C13.2679 11.6836 13.2679 12.5659 12.9231 13.3468C12.9231 13.0832 12.8318 12.8195 12.7507 12.6471C12.5783 13.2657 12.132 13.7018 11.5235 13.7931C11.9596 13.4381 11.9596 12.7383 11.6148 12.3834C11.5235 12.2921 11.3511 12.2109 11.2598 12.1197C10.56 11.856 9.76895 12.2921 9.41398 13.8742C8.97788 14.0466 7.487 13.7018 8.35922 12.8195C8.8866 12.9919 10.2051 12.1197 10.1138 11.501C9.94137 10.8012 9.3227 10.2738 8.53163 10.355C7.74055 10.355 7.21317 11.0548 6.60465 11.4097C6.07727 11.3185 5.90485 11.2373 5.64116 10.5274C5.64116 10.0913 6.07727 9.82758 6.07727 9.38133C5.7223 9.47261 5.64116 8.85395 4.85009 9.47261C4.75881 9.38133 4.85009 9.11764 4.85009 9.11764C4.67767 9.29005 4.5864 9.47261 4.49512 9.7363C4.66753 9.99999 4.85009 10.2637 5.19491 10.4361C5.63102 11.5821 6.07727 11.7546 6.51337 11.7546C6.68579 12.0182 7.04076 12.2819 7.39573 12.3732C7.30445 12.0182 7.30445 11.7546 7.39573 11.4097C8.35922 10.4462 9.06915 11.0548 9.15029 11.3185C8.35922 11.4909 8.8866 13.2454 7.56814 12.4645C7.56814 12.7282 7.56814 13.0832 7.74055 13.3468C7.91297 14.574 9.41398 14.2292 9.85009 14.4929C9.75881 13.3468 10.4687 12.4746 10.9961 12.5659C11.5235 12.6572 11.6959 13.5294 10.7324 14.4118C11.3511 14.503 11.9596 14.3205 12.487 13.9757C12.3957 14.6755 12.132 15.2941 11.6959 15.8215C14.9414 15.1217 16.9596 11.9574 16.2598 8.71196C16.2497 8.06287 16.0671 7.45436 15.7223 7.01825Z" fill="black"/>
<path d="M49.262 8.45841C48.9983 8.45841 48.8259 8.54968 48.5622 8.54968V11.7951C48.7346 11.8864 48.9983 11.8864 49.1809 11.8864C50.0632 11.8864 50.6718 11.2677 50.6718 10.1318C50.6718 8.99593 50.1444 8.45841 49.262 8.45841ZM48.9983 13.3773C48.0348 13.3773 47.1525 13.2049 46.2803 12.9412V4.34076H48.4709V7.23123C48.8259 7.13995 49.262 7.05881 49.617 7.05881C51.544 7.05881 52.7813 8.11358 52.7813 9.95942C52.8624 12.3225 51.544 13.3773 48.9983 13.3773Z" fill="black"/>
<path d="M57.3451 10.3955C56.1179 10.4868 55.2355 10.5679 55.2355 11.2779C55.2355 11.8053 55.7629 12.069 56.554 12.069C56.8177 12.069 57.0814 12.069 57.3451 11.9777V10.3955ZM56.6453 13.2961C54.3633 13.2961 53.2173 12.5963 53.2173 11.2779C53.2173 9.69573 55.2355 9.25963 57.4364 9.16835V8.90466C57.4364 8.37728 57.0002 8.20486 56.2903 8.20486C55.5804 8.20486 54.8806 8.37728 54.1808 8.55983L53.6534 7.33265C54.6169 6.97768 55.5804 6.80527 56.554 6.80527C58.5723 6.80527 59.5357 7.50506 59.5357 9.08721V12.7789C58.5723 13.2049 57.6088 13.3773 56.6453 13.2961Z" fill="black"/>
<path d="M64.3734 13.2049V9.24948C64.3734 8.72209 64.1097 8.36712 63.3187 8.36712C63.055 8.36712 62.7913 8.4584 62.5276 8.53954V13.1947H60.3369V7.40364C61.3004 7.04867 62.3552 6.87625 63.4099 6.87625C65.6919 6.87625 66.7467 7.66733 66.7467 8.98578V13.2049H64.3734Z" fill="black"/>
<path d="M72.0101 13.2049L69.7282 10.2231V13.2049H67.5273V4.34076H69.7282V9.77687L71.7464 7.15009H74.2921L72.0101 9.95942L74.4645 13.2049H72.0101Z" fill="black"/>
<path d="M42.061 15.6592H39.779L40.8338 13.2049L38.1157 7.15009H40.5701L41.9798 11.4503L43.4707 7.15009H45.9251L42.061 15.6592Z" fill="black"/>
<path d="M30.4788 5.04056H27.8419L26.1685 10.1318L24.4139 5.04056H21.777L20.6411 13.2049H22.7506L23.4504 7.5862L25.4687 13.2049H26.8784L28.8054 7.5862L29.5052 13.2049H31.6147L30.4788 5.04056Z" fill="black"/>
<path d="M36.0974 10.3955C34.8702 10.4868 33.9879 10.5679 33.9879 11.2779C33.9879 11.8052 34.5153 12.0689 35.3063 12.0689C35.57 12.0689 35.8337 12.0689 36.0974 11.9777V10.3955ZM35.3875 13.2961C33.1055 13.2961 31.9595 12.5963 31.9595 11.2779C31.9595 9.69571 33.9777 9.25961 36.1785 9.16833V8.90464C36.1785 8.37725 35.7424 8.20484 35.0325 8.20484C34.3226 8.20484 33.6228 8.37725 32.923 8.55981L32.4057 7.32249C33.3692 7.05879 34.3327 6.88638 35.3063 6.7951C37.3246 6.7951 38.2881 7.4949 38.2881 9.07705V12.7687C37.3246 13.2048 36.3611 13.3773 35.3875 13.2961Z" fill="black"/>
</svg>
